<svg xmlns="http://www.w3.org/2000/svg" viewBox="0 0 512 512"><defs><style>.cls-1{fill:#fe9a04;}.cls-2{fill:#fefefe;}.cls-3{fill:#98cb33;}.cls-4{fill:#fe9904;}.cls-5{fill:#737165;}.cls-6{fill:#fdfdfd;}.cls-7{fill:#90c030;}.cls-8{fill:#8fbf30;}.cls-9{fill:#8ab82e;}.cls-10{fill:#dcdcdc;}</style></defs><title>favicon</title><g id="Layer_2" data-name="Layer 2"><g id="Layer_1-2" data-name="Layer 1"><circle class="cls-1" cx="256" cy="256" r="256"/><path class="cls-2" d="M355.23,320.24c-1.89-.6-2.44-1.44-2.52-3.35-.55-13.79-.06-27.57.32-41.36.06-2,.62-2.93,2.64-3.61a11.32,11.32,0,0,0-.29-21.34c-2.06-.62-2.61-1.53-2.68-3.57-.54-14,0-28,.35-42,.05-1.76.95-2.09,2.21-2.56,5.26-2,8.07-6.2,7.76-11.49a11,11,0,0,0-9.09-10.44,4.15,4.15,0,0,1-3.42-2.78c-4.55-10.28-12.44-16.43-23.5-18.39-1.63-.29-2.37-.79-2.8-2.46a53.64,53.64,0,0,0-6.82-15.38c-21.4-33.42-65.78-42.61-99.56-20.57-13.1,8.55-23.15,19.58-27.6,34.94-.63,2.22-1.53,3-3.85,3.2-12.67,1.08-21.61,7.56-26.78,19.19-.51,1.11-.91,2-2.28,2.43-5,1.46-7.91,4.82-8.32,10s2.05,9.2,6.88,11.42a2.12,2.12,0,0,1,1.47,2.45c-.82,14.53-.75,29.08-.4,43.63a2.73,2.73,0,0,1-1.77,2.93,10.72,10.72,0,0,0-6.24,10.23,10.86,10.86,0,0,0,6.67,10.29c1.24.59,1.85,1.09,1.76,2.59-.84,14.54-.77,29.09-.42,43.63a2.7,2.7,0,0,1-1.75,2.94,10.7,10.7,0,0,0-6.26,10.21,10.87,10.87,0,0,0,6.65,10.32c1.23.59,1.77,1.1,1.69,2.6-.65,14-.34,28-.54,42-.15,10.64,7.21,17.18,17.22,17.06,26.91-.3,53.84-.1,80.77-.1q41.06,0,82.08,0c9.86,0,16.09-6.33,15.83-16.21-.37-13.9-.06-27.79.37-41.68.05-1.93.67-2.74,2.5-3.37a11.32,11.32,0,0,0-.28-21.44ZM209.9,155.73c8.61-15.72,22.3-24.4,39.44-27.9,20.17-4.12,46.41,9.57,55,28.3.35.76.63,1.56,1.1,2.72H268.81c-19,0-37.95,0-56.93.05C208.93,158.92,208.54,158.21,209.9,155.73Z"/><path d="M355.23,320.24c-1.89-.6-2.44-1.44-2.52-3.35-.55-13.79-.06-27.57.32-41.36.06-2,.62-2.93,2.64-3.61a11.32,11.32,0,0,0-.29-21.34c-2.06-.62-2.61-1.53-2.68-3.57-.54-14,0-28,.35-42,.05-1.76.95-2.09,2.21-2.56,5.26-2,8.07-6.2,7.76-11.49a11,11,0,0,0-9.09-10.44,4.15,4.15,0,0,1-3.42-2.78c-4.55-10.28-12.44-16.43-23.5-18.39-1.63-.29-2.37-.79-2.8-2.46a53.64,53.64,0,0,0-6.82-15.38c-21.4-33.42-65.78-42.61-99.56-20.57-13.1,8.55-23.15,19.58-27.6,34.94-.63,2.22-1.53,3-3.85,3.2-12.67,1.08-21.61,7.56-26.78,19.19-.51,1.11-.91,2-2.28,2.43-5,1.46-7.91,4.82-8.32,10s2.05,9.2,6.88,11.42a2.12,2.12,0,0,1,1.47,2.45c-.82,14.53-.75,29.08-.4,43.63a2.73,2.73,0,0,1-1.77,2.93,10.72,10.72,0,0,0-6.24,10.23,10.86,10.86,0,0,0,6.67,10.29c1.24.59,1.85,1.09,1.76,2.59-.84,14.54-.77,29.09-.42,43.63a2.7,2.7,0,0,1-1.75,2.94,10.7,10.7,0,0,0-6.26,10.21,10.87,10.87,0,0,0,6.65,10.32c1.23.59,1.77,1.1,1.69,2.6-.65,14-.34,28-.54,42-.15,10.64,7.21,17.18,17.22,17.06,26.91-.3,53.84-.1,80.77-.1q41.06,0,82.08,0c9.86,0,16.09-6.33,15.83-16.21-.37-13.9-.06-27.79.37-41.68.05-1.93.67-2.74,2.5-3.37a11.32,11.32,0,0,0-.28-21.44ZM209.9,155.73c8.61-15.72,22.3-24.4,39.44-27.9,20.17-4.12,46.41,9.57,55,28.3.35.76.63,1.56,1.1,2.72H268.81c-19,0-37.95,0-56.93.05C208.93,158.92,208.54,158.21,209.9,155.73Z"/><path class="cls-3" d="M167.36,342.54q35.31-.06,70.62-.15a4.83,4.83,0,0,1,3.37,1.61c9.24,8.16,18.74,8.2,27.92,0a5.93,5.93,0,0,1,4.35-1.6q36,.06,71.92,0c2.4,0,3.13.51,3,3-.56,13.87-1,27.75-.35,41.64a10.29,10.29,0,0,1-.78,4.73,13.68,13.68,0,0,1-4.5.52q-80.61,0-161.21,0c-4.42,0-8.34-.83-11.52-4.21a12.77,12.77,0,0,1-3.87-9q-.08-16.44,0-32.89C166.34,344.9,166.29,343.55,167.36,342.54Z"/><path class="cls-3" d="M167,203.1q35,0,69.95-.08a4.72,4.72,0,0,1,3.66,1.54c9.26,9.17,20.25,9.12,29.53-.12a4.27,4.27,0,0,1,3.37-1.41q36.12,0,72.23,0c2.29,0,2.93.63,2.83,2.92-.48,12-.82,24.06-.61,36.1,0,2.56,1.11,5.1.16,7.67-1.55-1.76-3.52-2.11-5.81-2.1q-78.24.09-156.48,0a38.69,38.69,0,0,1-9.05-.86c-6-1.45-10.14-6.12-10.35-12.25-.31-9.64-.09-19.3-.09-28.95A4.62,4.62,0,0,1,167,203.1Z"/><path class="cls-3" d="M167.29,272.83l61.21-.12c1.41,0,2.82.06,4.23,0,4.49-.25,8.33.4,12.25,3.46,6.89,5.39,16,4.4,23-1.59a7.47,7.47,0,0,1,5.25-1.89q36,.09,72,0c2.68,0,3.49.6,3.36,3.37-.57,12.47-.89,24.95-.54,37.44a9.8,9.8,0,0,1-.22,1.59c-.58,1.3-1.79,1.45-3,1.58a39,39,0,0,1-3.9.09H184.68a27.76,27.76,0,0,1-8.7-.95c-5.65-1.84-9.14-5.74-9.47-11.59-.54-9.53-.21-19.09-.13-28.64A3.57,3.57,0,0,1,167.29,272.83Z"/><path class="cls-3" d="M185.24,163.65c3.63-1.05,7.32-.28,11-.28q62.35-.06,124.72,0c11.84,0,21.45,6.21,25.41,16.36-.5.82-1.34.45-2,.45q-84.84,0-169.67,0c-.53,0-1.07-.09-1.61-.13-.4-3.28,1.74-5.4,3.6-7.55,3.47-4,7.45-7.44,12.92-8.49.42-.09-.11-.45.09-.07,0,.07-.06.17-.28.16C188,164.05,186.45,165.35,185.24,163.65Z"/><path class="cls-1" d="M155.87,186.37a7.54,7.54,0,0,1,5.43-1.7q94.72,0,189.47,0c3.06,0,5.6.94,7,3.8,1.2,2.48,1.27,5-.71,7.23-1.91,1.4-4.13,1.13-6.29,1.13H212.69q-21.31,0-42.65,0a24.57,24.57,0,0,1-7.73-.92C157.78,194.45,155.21,190.62,155.87,186.37Z"/><path class="cls-4" d="M156.15,255.91c1.82-1.84,4.17-1.54,6.43-1.54H330.83c6.83,0,13.67-.08,20.5,0,5.92.09,8.75,5,6.12,10.4-1.38,1.11-3,1.1-4.66,1.1h-185c-4.34,0-8.21-1-10.77-4.83C156,259.5,155.13,257.85,156.15,255.91Z"/><path class="cls-4" d="M156.19,325.59c1.81-1.86,4.17-1.53,6.42-1.53H281.1q34.83,0,69.66,0c6.2,0,9.14,4.29,6.91,9.86-1.81,1.4-3.94,1-6,1q-66.1,0-132.22,0c-17.37,0-34.73,0-52.1,0-4,0-7.5-1.06-10.06-4.3C156.14,329.19,155.24,327.58,156.19,325.59Z"/><path class="cls-2" d="M167.36,342.54c0,11.72-.06,23.44,0,35.16,0,8.76,5,13.64,13.82,13.64q81.24,0,162.48,0c1.26,0,2.6-.41,3.79.41-1.88,4.54-5.35,6.63-10.18,6.63q-82.4,0-164.8,0c-6.75,0-10.84-4.19-11.05-10.94-.43-13.24-.24-26.49.2-39.73C161.82,341.43,160.84,342.4,167.36,342.54Z"/><path class="cls-5" d="M259.21,113.68c5.29-1.4,10.24.54,15.05,2,18.58,5.87,33.62,16.36,42.62,34.25a12.75,12.75,0,0,1,.54,1.19c3.86,9.73,3.3,7.24-5,7.63a2.5,2.5,0,0,1-2.88-1.93c-6-18.14-33-37.48-58.19-33.85-21.06,3-37.51,13.64-46.65,33.67-1.64,3.61-4.38,1.56-6.66,2-1.06-1.58,0-2.91.56-4.26,5.35-13.8,15.5-23.34,27.72-31a64.41,64.41,0,0,1,27.34-9.74C255.49,113.9,257.35,112.79,259.21,113.68Z"/><path class="cls-2" d="M167.29,272.83c0,9.55,0,19.1.05,28.65.06,9.09,5.07,14,14.2,14H304.61q19.69,0,39.39,0c1.29,0,2.62.22,3.82-.47l0-.05c.65,1.43.31,2.91.21,4.37-1.08.07-2.15.2-3.23.2q-90,0-179.93.09c-2.91,0-3.46-.79-3.53-3.53-.35-12.7-.07-25.38.25-38.07C161.71,272.5,161.75,272.5,167.29,272.83Z"/><path class="cls-2" d="M167,203.1c.64,5.83,0,11.68.18,17.53.13,4.44.06,8.89.18,13.33a12.22,12.22,0,0,0,10.94,12.12,42.87,42.87,0,0,0,5.19.28q79.69,0,159.39,0a6.73,6.73,0,0,0,1.62,0c2.95-.74,3.88.64,3.62,3.34-1.18.06-2.37.16-3.56.16q-89.82,0-179.64.07c-2.75,0-3.55-.53-3.62-3.45-.31-12.69-.05-25.38.27-38.07C161.71,203,161.74,203,167,203.1Z"/><path class="cls-2" d="M156.19,325.59c1.32,5.91,4.45,8.31,10.94,8.31H355.72l1.95,0c-.89,2.6-3,3.57-5.45,3.88a23.88,23.88,0,0,1-2.93.05H162.63c-.76,0-1.52,0-2.28,0-3.17-.06-5.51-1.57-6.48-4.51S153.29,327.54,156.19,325.59Z"/><path class="cls-2" d="M156.15,255.91c.92,5.7,4.17,8.63,9.83,8.84,1.09,0,2.17,0,3.26,0l188.21,0c-1.23,2.39-3.29,3.3-5.85,3.35H350q-94,0-187.94,0c-3.24,0-6.06-.5-7.76-3.61C152.67,261.63,153.35,258.48,156.15,255.91Z"/><path class="cls-2" d="M155.87,186.37c1.81,7.16,4.46,9.21,11.95,9.21H352.48c1.52,0,3,.07,4.55.11-1.14,2-3,2.68-5.16,2.78-.86,0-1.73,0-2.6,0H162.67c-.55,0-1.09,0-1.63,0-3.26.13-5.83-1.13-7-4.18A6.55,6.55,0,0,1,155.87,186.37Z"/><path class="cls-6" d="M253.29,114.21c-21.48,4.18-38.83,14.6-50.57,33.47a41.44,41.44,0,0,0-4.71,11l-3.52.21c1.58-19.86,32-44.05,56.68-45.31C251.94,113.58,253,112.69,253.29,114.21Z"/><path class="cls-6" d="M185.24,163.65h4.18c-7.22,3.79-13.36,8.52-16.37,16.4h-9.44C168.11,170.58,175.09,165.05,185.24,163.65Z"/><path class="cls-7" d="M246.36,203.09h17.55C260.22,208,251.29,208.12,246.36,203.09Z"/><path class="cls-8" d="M263.67,342.56c-6.13,4-11.78,3.94-16.41,0Z"/><path class="cls-9" d="M262.37,273c-4.9,2.74-9.25,2.78-14.31,0Z"/><path class="cls-10" d="M253.29,114.21l-2.12-.65c2.69-.54,5.38-1.2,8,.12Z"/><path class="cls-3" d="M348,319.36,347.8,315A4.15,4.15,0,0,1,348,319.36Z"/></g></g></svg>